<svg width="36" height="35" viewBox="0 0 36 35" fill="none" xmlns="http://www.w3.org/2000/svg">
<path d="M27.75 28.4375H21.75" stroke="#FFC96C" stroke-width="2" stroke-linecap="round" stroke-linejoin="round"/>
<path d="M24.75 31.3542V25.5208" stroke="#FFC96C" stroke-width="2" stroke-linecap="round" stroke-linejoin="round"/>
<path d="M17.985 31.8062C15.255 31.8062 12.54 31.1354 10.47 29.7937C6.84 27.4312 6.84 23.5812 10.47 21.2333C14.595 18.55 21.36 18.55 25.485 21.2333" stroke="#FFC96C" stroke-width="2" stroke-linecap="round" stroke-linejoin="round"/>
<path d="M23.52 5.77499C24.24 6.81041 24.66 8.04999 24.66 9.39166C24.645 12.8917 21.81 15.7354 18.24 15.8521C18.09 15.8375 17.91 15.8375 17.745 15.8521C14.175 15.7354 11.34 12.8917 11.34 9.39166C11.34 5.81874 14.31 2.91666 18 2.91666" stroke="#FFC96C" stroke-width="2" stroke-linecap="round" stroke-linejoin="round"/>
</svg>
