<svg width="30" height="30" viewBox="0 0 30 30" fill="none" xmlns="http://www.w3.org/2000/svg">
<path d="M5.025 7.4625C3.4375 9.5625 2.5 12.175 2.5 15C2.5 21.9 8.1 27.5 15 27.5C21.9 27.5 27.5 21.9 27.5 15C27.5 8.1 21.9 2.5 15 2.5" stroke="#A6D9FF" stroke-width="1.5" stroke-linecap="round" stroke-linejoin="round"/>
<path d="M6.25 15C6.25 19.8375 10.1625 23.75 15 23.75C19.8375 23.75 23.75 19.8375 23.75 15C23.75 10.1625 19.8375 6.25 15 6.25" stroke="#A6D9FF" stroke-width="1.5" stroke-linecap="round" stroke-linejoin="round"/>
<path d="M15 20C17.7625 20 20 17.7625 20 15C20 12.2375 17.7625 10 15 10" stroke="#A6D9FF" stroke-width="1.5" stroke-linecap="round" stroke-linejoin="round"/>
</svg>
