<svg width="30" height="28" viewBox="0 0 30 28" fill="none" xmlns="http://www.w3.org/2000/svg">
<path d="M19.6281 11.3548L20.9224 10.0605" stroke="#F99885" stroke-width="1.7" stroke-miterlimit="10" stroke-linecap="round" stroke-linejoin="round"/>
<path d="M11.862 19.1204L16.3921 14.5903" stroke="#F99885" stroke-width="1.7" stroke-miterlimit="10" stroke-linecap="round" stroke-linejoin="round"/>
<path d="M20.9222 19.1207L11.862 10.0605" stroke="#F99885" stroke-width="1.7" stroke-miterlimit="10" stroke-linecap="round" stroke-linejoin="round"/>
<path d="M5.39014 9.51684C5.39014 8.06717 6.16675 6.721 7.42227 5.98322L15.1107 1.54363C16.3662 0.818792 17.9194 0.818792 19.1879 1.54363L26.8763 5.98322C28.1318 6.70805 28.9085 8.05423 28.9085 9.51684V18.3701C28.9085 19.8198 28.1318 21.166 26.8763 21.9037L19.1879 26.3433C17.9324 27.0682 16.3791 27.0682 15.1107 26.3433L7.42227 21.9037C6.16675 21.1789 5.39014 19.8327 5.39014 18.3701V14.7977" stroke="#F99885" stroke-width="1.7" stroke-linecap="round" stroke-linejoin="round"/>
</svg>
